<?xml version="1.0" encoding="UTF-8" standalone="no"?>
<!-- Created with Inkscape (http://www.inkscape.org/) -->

<svg
   xmlns:dc="http://purl.org/dc/elements/1.1/"
   xmlns:cc="http://creativecommons.org/ns#"
   xmlns:rdf="http://www.w3.org/1999/02/22-rdf-syntax-ns#"
   xmlns:svg="http://www.w3.org/2000/svg"
   xmlns="http://www.w3.org/2000/svg"
   xmlns:sodipodi="http://sodipodi.sourceforge.net/DTD/sodipodi-0.dtd"
   xmlns:inkscape="http://www.inkscape.org/namespaces/inkscape"
   width="64mm"
   height="64mm"
   viewBox="0 0 64 64"
   version="1.1"
   id="svg342"
   inkscape:version="0.92.4 (5da689c313, 2019-01-14)"
   sodipodi:docname="carFront.svg">
  <defs
     id="defs336" />
  <sodipodi:namedview
     id="base"
     pagecolor="#ffffff"
     bordercolor="#666666"
     borderopacity="1.0"
     inkscape:pageopacity="0.0"
     inkscape:pageshadow="2"
     inkscape:zoom="0.98994949"
     inkscape:cx="257.81035"
     inkscape:cy="100.99696"
     inkscape:document-units="mm"
     inkscape:current-layer="layer1"
     showgrid="false"
     inkscape:window-width="1920"
     inkscape:window-height="1017"
     inkscape:window-x="-8"
     inkscape:window-y="-8"
     inkscape:window-maximized="1" />
  <metadata
     id="metadata339">
    <rdf:RDF>
      <cc:Work
         rdf:about="">
        <dc:format>image/svg+xml</dc:format>
        <dc:type
           rdf:resource="http://purl.org/dc/dcmitype/StillImage" />
        <dc:title></dc:title>
      </cc:Work>
    </rdf:RDF>
  </metadata>
  <g
     inkscape:label="Layer 1"
     inkscape:groupmode="layer"
     id="layer1"
     transform="translate(0,-233)">
    <path
       style="fill:#000000;stroke:none;stroke-width:0.00518304"
       d="m 26.643321,259.1395 c -3.628128,0.11926 -5.540672,0.63751 -7.230349,1.954 -0.274695,0.21252 -1.264666,1.20766 -1.451258,1.45644 -0.07248,0.0933 -0.191761,0.2436 -0.264329,0.3369 -0.139944,0.17622 -0.528675,0.71525 -0.844833,1.18174 l -0.196956,0.29543 -0.347262,-0.45093 c -0.404288,-0.51831 -0.684162,-0.78265 -1.000335,-0.95368 -0.217682,-0.11396 -0.259148,-0.11914 -1.399415,-0.10894 -1.606746,0.0155 -2.648547,0.12441 -3.026901,0.311 -0.342081,0.16586 -0.673798,0.5183 -0.746368,0.79299 -0.1865787,0.69455 0.528673,0.88112 3.337893,0.88112 h 1.663757 l 0.326523,0.20734 c 0.176227,0.11396 0.321354,0.22805 0.321354,0.25396 0,0.0259 -0.08296,0.0621 -0.181409,0.0778 -0.222865,0.0414 -1.228382,0.44055 -1.658576,0.66343 -2.01102,1.01587 -3.28605,2.39976 -4.1205197,4.47297 -0.217694,0.53903 -0.4509227,1.43053 -0.5701387,2.2028 -0.03631,0.2125 -0.08296,0.5183 -0.108809,0.67379 -0.02597,0.15549 -0.06215,0.77227 -0.0725,1.37351 l -0.02597,1.08845 0.155488,-0.59608 c 0.3265367,-1.26983 0.4820257,-1.83997 0.5183097,-1.8918 0.02068,-0.0312 0.05182,-0.12439 0.0725,-0.20731 0.124399,-0.5546 0.7308097,-1.89699 1.1921087,-2.64336 0.772277,-1.2543 1.891803,-2.37902 3.140923,-3.14612 0.461285,-0.28506 1.544553,-0.81892 1.663757,-0.81892 0.04148,0 0.09846,-0.0208 0.12958,-0.0466 0.02597,-0.0208 0.316161,-0.12958 0.642696,-0.23841 0.580503,-0.1866 0.60123,-0.19696 0.756719,-0.4302 0.08813,-0.13476 0.285071,-0.43018 0.435377,-0.65824 0.938129,-1.4098 1.974748,-2.55525 2.84549,-3.14611 0.736003,-0.49758 1.959203,-0.9796 2.804035,-1.09881 0.129569,-0.0207 0.3369,-0.0569 0.466468,-0.083 0.129581,-0.0259 0.653072,-0.088 1.166187,-0.13995 0.83447,-0.083 1.580837,-0.0933 7.152607,-0.0933 7.152603,0 7.276997,0.006 9.381313,0.44055 0.456109,0.0933 1.425338,0.49759 1.917727,0.793 0.570136,0.34727 1.409789,1.07809 1.352777,1.17138 -0.02072,0.0312 -0.0051,0.0466 0.03629,0.0259 0.04665,-0.0154 0.176225,0.0933 0.347265,0.29025 0.23842,0.2747 0.264335,0.32135 0.202139,0.40428 -0.06738,0.0779 -0.0622,0.083 0.02072,0.0155 0.04665,-0.0414 0.09848,-0.0621 0.108844,-0.0518 0.134759,0.15548 1.135087,1.56528 1.440886,2.02656 0.155492,0.24879 0.295436,0.40428 0.352448,0.40428 0.07775,0 0.875933,0.25398 1.114356,0.35763 0.05701,0.026 0.233237,0.0984 0.388727,0.16067 0.259151,0.10368 0.777458,0.36799 1.389057,0.69454 0.119218,0.0621 0.285067,0.17104 0.362811,0.23322 0.07775,0.0621 0.321352,0.25399 0.544221,0.41985 0.64788,0.49239 1.373509,1.24392 1.907362,1.99545 0.165859,0.22807 0.772276,1.24912 0.772276,1.29577 0,0.0105 0.108844,0.2436 0.238418,0.52868 0.316163,0.67379 0.647882,1.67412 0.989963,2.96988 l 0.274699,1.06253 -0.02591,-1.06253 c -0.02592,-0.96923 -0.07258,-1.42016 -0.233237,-2.3842 -0.202141,-1.19728 -0.741179,-2.60708 -1.342413,-3.5141 -0.523485,-0.78783 -1.005509,-1.29058 -2.02657,-2.10433 -0.129574,-0.10368 -0.938131,-0.58049 -1.24393,-0.7308 -0.40946,-0.20733 -0.953679,-0.4302 -1.399423,-0.57533 -0.212508,-0.0674 -0.425009,-0.13993 -0.466473,-0.15549 -0.05183,-0.0154 0.04146,-0.10368 0.285064,-0.25914 l 0.362816,-0.22806 h 1.643022 c 1.637847,0 2.145783,-0.0362 2.798845,-0.18659 0.409465,-0.0984 0.570138,-0.23841 0.570138,-0.50276 0,-0.37835 -0.290252,-0.75152 -0.772276,-0.99513 -0.352445,-0.17623 -1.471983,-0.28508 -3.04763,-0.30062 -1.109172,-0.0105 -1.145451,-0.006 -1.368326,0.1087 -0.316164,0.17102 -0.694524,0.53385 -1.046973,1.01587 l -0.300616,0.40944 -0.233238,-0.35761 c -0.336897,-0.50795 -0.533853,-0.78783 -0.761907,-1.07808 -0.108843,-0.13475 -0.186589,-0.26952 -0.171041,-0.29542 0.01555,-0.026 -0.0051,-0.0466 -0.04146,-0.0466 -0.09329,0 -0.419826,-0.4043 -0.378362,-0.46648 0.01554,-0.0312 0.0051,-0.0518 -0.02592,-0.0518 -0.03109,0 -0.300618,-0.22286 -0.590866,-0.49757 -0.29025,-0.26952 -0.741177,-0.63752 -0.995146,-0.81373 -0.621966,-0.43539 -1.539366,-0.87594 -2.119866,-1.02107 -0.08293,-0.0208 -0.331714,-0.088 -0.54422,-0.14512 -0.979595,-0.25916 -2.342738,-0.40945 -4.379673,-0.47684 -1.777785,-0.057 -9.0496,-0.057 -10.832572,0.006 z"
       id="path326"
       inkscape:connector-curvature="0" />
  </g>
</svg>
