<?xml version="1.0" encoding="UTF-8" standalone="no"?>
<!-- Created with Inkscape (http://www.inkscape.org/) -->

<svg
   xmlns:dc="http://purl.org/dc/elements/1.1/"
   xmlns:cc="http://creativecommons.org/ns#"
   xmlns:rdf="http://www.w3.org/1999/02/22-rdf-syntax-ns#"
   xmlns:svg="http://www.w3.org/2000/svg"
   xmlns="http://www.w3.org/2000/svg"
   xmlns:sodipodi="http://sodipodi.sourceforge.net/DTD/sodipodi-0.dtd"
   xmlns:inkscape="http://www.inkscape.org/namespaces/inkscape"
   width="64mm"
   height="64mm"
   viewBox="0 0 64 64"
   version="1.1"
   id="svg342"
   inkscape:version="0.92.1 r15371"
   sodipodi:docname="carFront.svg">
  <defs
     id="defs336" />
  <sodipodi:namedview
     id="base"
     pagecolor="#ffffff"
     bordercolor="#666666"
     borderopacity="1.0"
     inkscape:pageopacity="0.0"
     inkscape:pageshadow="2"
     inkscape:zoom="2.8"
     inkscape:cx="150.69267"
     inkscape:cy="103.5867"
     inkscape:document-units="mm"
     inkscape:current-layer="layer1"
     showgrid="false"
     inkscape:window-width="1920"
     inkscape:window-height="1007"
     inkscape:window-x="0"
     inkscape:window-y="0"
     inkscape:window-maximized="1" />
  <metadata
     id="metadata339">
    <rdf:RDF>
      <cc:Work
         rdf:about="">
        <dc:format>image/svg+xml</dc:format>
        <dc:type
           rdf:resource="http://purl.org/dc/dcmitype/StillImage" />
        <dc:title />
      </cc:Work>
    </rdf:RDF>
  </metadata>
  <g
     inkscape:label="Layer 1"
     inkscape:groupmode="layer"
     id="layer1"
     transform="translate(0,-233)">
    <path
       id="path326"
       transform="matrix(0.26458333,0,0,0.26458333,0,233)"
       style="fill:#000000;stroke:none;stroke-width:0.01958944"
       d="m 121.17773,98.615234 c -8.55325,0.0028 -17.10912,0.06259 -20.47851,0.181641 v -0.002 c -13.712632,0.450746 -20.941945,2.409058 -27.328126,7.384768 -1.038218,0.80322 -4.779146,4.56559 -5.484375,5.50586 -0.27394,0.35263 -0.723774,0.9208 -0.998047,1.27343 -0.528922,0.66603 -1.998432,2.70174 -3.19336,4.46485 l -0.628906,0.94336 c 0.02681,0.0329 0.03247,0.0508 0.0625,0.0859 -0.1611,0.89845 -0.351607,0.83335 -1.044922,1.16602 0.0098,0.003 0.01946,0.009 0.0293,0.0117 -0.02317,0.004 -0.0911,0.0179 -0.07031,0.008 0.01658,-0.008 0.02499,-0.0118 0.04102,-0.0195 -0.0319,-0.01 -0.06392,-0.0254 -0.0957,-0.0371 v 0.002 l -0.02148,0.0215 c -0.0045,0.003 -0.0096,0.008 -0.01367,0.0117 -7.33e-4,0.002 -0.04988,0.0649 -0.0039,-0.008 -0.0027,0.007 -0.005,0.0146 -0.0078,0.0215 -0.0011,0.003 -0.0028,0.005 -0.0039,0.008 -7.32e-4,0.004 3.92e-4,0.005 0,0.008 -0.0026,0.0151 -0.0057,0.0345 -0.01367,0.0488 -0.0064,0.0113 -0.01827,0.0199 -0.02734,0.0312 0.0042,-0.004 0.01626,-0.0194 0.01172,-0.0156 -0.0102,0.0113 -0.01947,0.0219 -0.0293,0.0332 -0.0063,0.006 -0.01291,0.0128 -0.01953,0.0176 l -0.002,0.002 -0.002,0.002 c -0.003,0.003 -0.0068,0.008 -0.0098,0.0117 -0.0073,0.0133 -0.01336,0.028 -0.02344,0.0391 -0.0041,0.004 -0.0084,0.008 -0.01563,0.0117 -0.0063,0.0148 -0.02237,0.0284 -0.04492,0.0371 -0.003,0.004 -0.0067,0.009 -0.0098,0.0117 0.0072,-0.006 0.03501,-0.0343 -0.03125,0.0312 -0.0049,0.004 0.0076,-0.0118 0.01172,-0.0156 -0.0094,0.0113 -0.01827,0.0239 -0.02734,0.0312 0.0042,-0.004 0.01625,-0.0194 0.01172,-0.0156 -0.0056,0.006 -0.01053,0.01 -0.01563,0.0156 -0.0021,0.002 -0.004,0.004 -0.0059,0.006 -1.82e-4,0.001 -0.006,0.0116 -0.0039,0.01 -0.08593,0.15673 -0.171882,0.31393 -0.257812,0.47071 9.9e-4,0.003 0.0019,0.0117 0.0039,0.0117 0.03874,-0.0582 0.142748,-0.2413 0.109375,-0.17969 -0.356334,0.65597 -0.140998,0.39058 -0.714844,0.875 0.206874,-0.13298 0.174451,-0.1093 0.04492,-0.0137 -0.09411,0.11641 -0.200352,0.23205 -0.332031,0.30273 -0.03574,0.0193 -0.184646,0.0622 -0.310547,0.0996 -0.0033,0.004 -0.0064,0.007 -0.0098,0.01 0.04689,-0.0128 -0.05117,0.014 0.05078,-0.0137 -0.02325,0.0133 -0.05313,0.0285 -0.07813,0.043 0.0014,-0.001 0.01902,-0.0194 -0.01758,0.0176 -0.0045,0.004 0.0076,-0.0118 0.01172,-0.0156 -0.0052,0.006 -0.01042,0.0104 -0.01563,0.0156 -0.0047,0.006 -0.0093,0.008 -0.01367,0.0137 -0.09536,0.10205 0.057,-0.0557 -0.04883,0.0527 0.01602,-0.0173 -0.002,0.002 -0.01172,0.0117 -0.0013,0.003 -0.0029,0.009 -0.0039,0.0117 -0.0034,0.008 -0.0079,0.0213 -0.0098,0.0176 -0.0023,-0.007 0.0084,-0.0288 0.0078,-0.0234 -0.01222,0.0393 -0.0067,0.0506 -0.04102,0.0762 -0.0076,0.008 0.02174,-0.029 0.01758,-0.0215 -0.0057,0.0113 -0.01431,0.018 -0.02148,0.0293 0.0079,-0.0189 -0.0016,0.003 -0.03125,0.0312 -0.0042,0.004 -0.0088,0.0117 -0.01367,0.0117 -0.0041,0.005 -0.0091,0.01 -0.01367,0.0137 -0.0045,0.005 -0.0093,0.0101 -0.01367,0.0156 -0.0045,0.004 -0.01125,0.007 -0.01563,0.0117 -0.0038,0.003 -0.0081,0.007 -0.01172,0.0117 -7.68e-4,0.007 0.001,0.0136 -0.002,0.0195 -0.01587,0.0378 -0.03873,0.0452 -0.06836,0.0664 -0.0013,-0.008 -9.47e-4,0.001 -0.01563,0.0117 -0.0018,-0.008 0.01625,-0.0194 0.01172,-0.0156 -0.06851,0.068 -0.03741,0.0387 -0.03125,0.0332 -0.0037,0.003 -0.0084,0.007 -0.01172,0.0117 -0.0044,0.004 0.0044,-0.002 -0.002,0.004 -0.0039,0.005 -0.0088,0.01 -0.01367,0.0137 0.0064,-0.009 0.04213,-0.0555 -0.03711,0.041 -0.07174,0.034 -0.04101,0.0245 -0.01758,0.006 0.0038,-0.003 0.01169,-0.0155 0.0078,-0.0117 -0.01361,0.0113 -0.02403,0.0259 -0.03711,0.041 -7.34e-4,7.4e-4 -0.0029,0.002 -0.0039,0.002 -0.01032,0.005 -0.02098,0.008 -0.03125,0.0117 l -0.002,0.002 c 0.0078,-0.006 0.0011,0.002 -0.0332,0.0293 0.0019,-9.9e-4 0.0035,1.6e-4 0.0059,-0.002 0.0042,-0.004 -0.0079,0.005 -0.01172,0.008 0.01024,-0.008 -9.6e-4,5.9e-4 0.0059,-0.006 -0.0059,0.004 -0.01429,0.005 -0.01758,0.008 7.7e-5,8.8e-4 0.0039,0.005 0.0039,0.006 0,0.0888 -0.271685,0.20343 -0.597657,0.26953 -0.21356,0.18756 -0.34837,0.21228 -0.427734,0.12891 -1.167721,0.32456 -4.428025,1.62629 -5.929688,2.40429 -7.600699,3.83951 -12.420316,9.06854 -15.574218,16.9043 -0.82278,2.03727 -1.703716,5.40735 -2.154297,8.32617 -0.137223,0.80315 -0.314418,1.95921 -0.412109,2.54688 -0.09815,0.58768 -0.23432,2.919 -0.273438,5.1914 l -0.09766,4.11328 0.58789,-2.25195 c 1.234153,-4.79936 1.821849,-6.9545 1.958985,-7.15039 0.07816,-0.11791 0.195277,-0.46981 0.273437,-0.7832 0.470169,-2.09601 2.762368,-7.17128 4.50586,-9.99219 2.918842,-4.74066 7.150011,-8.99135 11.871093,-11.89062 1.743439,-1.07739 5.838528,-3.09376 6.289063,-3.09376 0.156763,0 0.370663,-0.0802 0.488281,-0.17773 0.09815,-0.0786 1.19554,-0.48908 2.429688,-0.90039 2.194027,-0.70526 2.2717,-0.74348 2.859375,-1.625 0.33309,-0.50933 1.078399,-1.62633 1.646484,-2.48828 3.545684,-5.32838 7.462913,-9.65746 10.753906,-11.89063 2.781743,-1.88062 7.404596,-3.70373 10.597656,-4.15429 0.48971,-0.0782 1.273966,-0.21385 1.763672,-0.3125 0.489754,-0.0979 2.468872,-0.33297 4.408204,-0.5293 3.153896,-0.3137 5.974542,-0.35351 27.033202,-0.35352 27.03346,0 27.50371,0.0236 35.45703,1.66602 1.72386,0.35262 5.38706,1.87958 7.24805,2.99609 1.91242,1.16487 4.62057,3.46793 5.05664,4.21875 0.003,0.002 0.003,-8.8e-4 0.006,0.002 -0.0459,-0.0378 -0.006,-0.005 0.0234,0.0215 0.006,0.008 -0.0256,-0.0212 -0.0195,-0.0137 0.0132,0.0151 0.0288,0.0224 0.041,0.0391 -0.005,-0.004 -0.0175,-0.0109 -0.0137,-0.008 0.0157,0.0136 0.034,0.0274 0.0508,0.0391 0.0772,0.10092 0.006,0.004 0.0606,0.084 0.0622,0.14551 0.0383,0.0682 0.0156,0.0391 -0.005,-0.008 -0.0256,-0.0232 -0.0195,-0.0156 0.0136,0.0151 0.0293,0.0267 0.043,0.043 0.004,0.003 0.008,0.006 0.0117,0.01 0,0 0,0.002 0,0.002 0.001,0.002 0.005,0.002 0.006,0.004 0.0579,0.0562 0.0454,0.0251 0.0644,0.0645 0.002,0.005 0.002,0.009 0.004,0.0137 0.21568,0.0362 0.655,0.41519 1.23242,1.08008 0.90111,1.03822 1.48892,1.0772 1.25391,1.39063 0.17751,-0.0497 0.68723,0.32821 1.24804,0.77539 -0.56005,-0.35014 -1.26114,-0.78841 -1.24804,-0.77539 0.50927,0.58764 4.28954,5.91673 5.44531,7.66015 0.58769,0.94031 1.11657,1.52735 1.33203,1.52735 0.29386,0 3.30982,0.95982 4.21094,1.35156 0.21547,0.0983 0.88314,0.37208 1.4707,0.60742 0.97947,0.39186 2.93856,1.3908 5.25,2.625 0.45059,0.23471 1.07725,0.64586 1.37109,0.88086 0.29386,0.23471 1.2143,0.96102 2.05664,1.58789 2.44868,1.86099 5.19128,4.70059 7.20899,7.54102 0.62687,0.862 2.91797,4.72212 2.91797,4.89843 0,0.0397 0.41261,0.92058 0.90234,1.99805 1.19494,2.5466 2.44739,6.32726 3.74023,11.22461 l 1.03907,4.01562 -0.0977,-4.01562 c -0.098,-3.66322 -0.2756,-5.36811 -0.88281,-9.01172 -0.76398,-4.52514 -2.79989,-9.85315 -5.07227,-13.28125 -1.97853,-2.97763 -3.80102,-4.87753 -7.66015,-7.95312 -0.48973,-0.39186 -3.5454,-2.19361 -4.70118,-2.76172 -1.5475,-0.78361 -3.60437,-1.62725 -5.28906,-2.17578 -0.80318,-0.25474 -1.60696,-0.52909 -1.76367,-0.5879 -0.0671,-0.02 -0.0421,-0.0848 0.0449,-0.17968 -0.0257,-0.007 -0.04,-0.007 -0.10351,-0.0371 -0.0275,-0.0125 -0.0768,-0.0379 -0.0801,-0.0566 h -0.002 c -0.0213,-0.005 -0.0439,-0.0116 -0.0586,-0.0137 -0.10975,-0.0206 -0.13544,-0.0464 -0.1875,-0.082 -0.0345,-0.0102 -0.0706,-0.0193 -0.10351,-0.0332 -0.0283,-0.0113 -0.10569,-0.0444 -0.0762,-0.0527 0.0393,-0.0113 0.15504,0.0517 0.11524,0.043 -0.12938,-0.0291 -0.14342,-0.0451 -0.20703,-0.0898 -0.0281,-0.009 -0.057,-0.0161 -0.084,-0.0273 -0.0283,-0.0113 -0.10564,-0.0425 -0.0762,-0.0508 0.0392,-0.0113 0.15496,0.0501 0.11524,0.041 -0.11965,-0.0266 -0.13852,-0.0467 -0.18946,-0.082 -0.0341,-0.0102 -0.069,-0.0194 -0.10156,-0.0332 -0.028,-0.0113 -0.10538,-0.0433 -0.0762,-0.0508 0.0396,-0.0113 0.15518,0.0474 0.11523,0.0391 -0.12169,-0.0242 -0.14033,-0.0456 -0.19531,-0.084 -0.0357,-0.0113 -0.0716,-0.0217 -0.10547,-0.0371 -0.0239,-0.01 -0.0679,-0.0366 -0.0644,-0.0469 -0.0361,-0.0166 -0.0709,-0.0221 -0.0918,-0.0332 0.0321,0.008 0.12664,0.0328 0.0957,0.0215 -0.2344,-0.0853 -0.20792,-0.0589 -0.29101,-0.14844 -0.0186,-0.0223 -0.0281,-0.03 -0.0391,-0.041 -0.43234,-0.0312 -0.69922,-0.0904 -0.69922,-0.19141 0,-0.0977 0.0474,-0.19715 0.125,-0.29687 -0.003,-0.006 -0.007,-0.0118 -0.01,-0.0176 -0.0427,-0.0359 -0.0869,-0.10167 -0.12109,-0.18164 -0.0354,-0.0246 -0.0836,-0.0914 -0.125,-0.17383 -0.30909,-0.58949 0.15481,0.27717 -0.15821,-0.31055 -0.0102,-0.0189 0.0222,0.0374 0.0332,0.0566 -0.30906,-0.58934 0.15275,0.27911 -0.16016,-0.30859 -0.0102,-0.0189 0.0219,0.0374 0.0332,0.0566 -0.30878,-0.58889 0.15629,0.27912 -0.15821,-0.30859 -0.0102,-0.0189 0.0208,0.0378 0.0312,0.0566 -0.30848,-0.59417 0.16142,0.27735 -0.15625,-0.30469 -0.0113,-0.0189 0.0233,0.0386 0.0352,0.0586 3e-5,-0.002 -4e-5,-0.005 0,-0.006 -0.0274,-0.0511 -0.0527,-0.10126 -0.0801,-0.15235 -2.3e-4,-0.002 9.6e-4,-0.002 0,-0.006 -0.0165,-0.0369 -0.0355,-0.0746 -0.0527,-0.11133 -0.0338,-0.0251 -0.0681,-0.0951 -0.10352,-0.15625 -0.0309,-0.0488 -0.0609,-0.0977 -0.0918,-0.14648 1e-4,-0.0151 -0.0159,-0.0267 -0.0215,-0.041 -0.0144,-0.0374 -0.0284,-0.0754 -0.041,-0.11328 l -0.82617,-1.26758 c -1.27331,-1.91972 -2.01892,-2.97917 -2.88086,-4.07617 -0.34945,-0.43265 -0.60099,-0.84912 -0.63672,-1.02929 -2.8e-4,-0.001 2.6e-4,-0.003 0,-0.004 -0.001,-0.002 -0.002,-0.004 -0.004,-0.006 0.007,0.008 -0.0139,-0.012 -0.0215,-0.0195 -0.007,-0.006 -0.0123,-0.0106 -0.0176,-0.0176 -0.007,-0.008 0.0368,0.0251 0.0274,0.0176 -0.0438,-0.034 -0.0643,-0.0442 -0.0274,-0.0215 -0.0237,-0.0229 -0.0395,-0.0502 -0.0566,-0.0762 -0.002,-0.001 -0.007,-0.003 -0.008,-0.004 -0.003,-0.002 -0.004,-0.007 -0.006,-0.0117 -8.8e-4,-0.002 -0.003,-8.2e-4 -0.004,-0.004 -0.0106,-0.009 -0.0208,-0.0173 -0.0312,-0.0273 -0.007,-0.0145 -0.0113,-0.0297 -0.0156,-0.041 0.004,0.008 0.0229,0.0232 0.0176,0.0156 -0.0351,-0.034 -0.0481,-0.0396 -0.0176,-0.0215 -0.007,-0.005 -2.7e-4,-0.004 -0.006,-0.008 v -0.002 c -0.004,-0.003 -0.003,-0.006 -0.006,-0.008 -0.009,-1.7e-4 -0.0175,0.002 -0.0254,-0.006 -0.0204,-0.0217 -0.0162,-0.0249 -0.0312,-0.043 l -0.004,-0.004 c -0.40182,-0.13209 -1.45239,-1.44244 -1.36328,-1.71289 -0.001,-7.2e-4 -0.003,-7.9e-4 -0.004,-0.002 l -0.002,-0.002 c -0.0217,-0.0218 -0.0181,-0.0382 -0.0234,-0.0469 -0.0409,-0.0295 -0.046,-0.0238 -0.082,-0.082 l 0.002,-0.002 c -0.004,-0.008 -0.0212,-0.0195 -0.0137,-0.0195 v -0.002 c -0.014,-0.0151 -0.0293,-0.0262 -0.043,-0.0391 -0.006,-0.008 0.0279,0.0232 0.0215,0.0156 -0.007,-0.007 -0.0142,-0.0134 -0.0215,-0.0195 -0.15333,-0.13644 -0.0163,-0.0159 -0.0234,-0.0234 -0.009,-0.01 -0.0176,-0.02 -0.0273,-0.0293 0.005,0.008 -0.0232,-0.0194 -0.0176,-0.0156 -0.006,-0.005 -0.0125,-0.01 -0.0176,-0.0176 -0.004,-0.004 0.0103,0.008 0.0156,0.008 -0.009,-0.006 -0.002,-0.006 -0.008,-0.01 -0.0103,0.001 -0.0202,0.004 -0.0293,-0.006 -0.0285,-0.0304 -0.0244,-0.0371 -0.043,-0.0606 -0.0121,-0.01 0.0201,0.0246 -0.0918,-0.0879 -10e-4,-10e-4 -5.1e-4,-0.002 -0.002,-0.004 -0.35941,-0.25378 -1.06201,-0.84057 -1.92383,-1.65625 -1.097,-1.01866 -2.79989,-2.41021 -3.75977,-3.07618 -2.35073,-1.64554 -5.8177,-3.31085 -8.01171,-3.85937 -0.31343,-0.0786 -1.25543,-0.33294 -2.0586,-0.54883 -3.70241,-0.979512 -8.85407,-1.546087 -16.55273,-1.800779 -3.35683,-0.113152 -11.90643,-0.16884 -20.45899,-0.166016 z m 52.87696,11.251956 -0.002,0.002 c -0.002,0.002 0.01,0.008 0.008,0.004 z m 1.67383,2.05859 -0.002,0.002 c -0.002,0.002 0.01,0.008 0.008,0.004 z m 0.10156,0.12695 c 0.002,0.005 0.007,0.009 0.01,0.0137 0.008,0.006 0.0202,0.0155 0.0156,0.01 -0.008,-0.008 -0.0166,-0.0162 -0.0254,-0.0234 z m -6.32813,1.42579 c 0.004,0.003 6.5e-4,0.007 0.004,0.01 -0.006,-0.0107 -0.009,-0.0189 0.0156,0.0156 0.007,0.008 -0.0286,-0.0329 -0.0195,-0.0254 z m -112.712888,4.13086 c -0.0056,0.002 -0.0099,0.0111 -0.01562,0.0117 -0.01386,0.015 -0.02413,0.0259 -0.03125,0.0352 0.01647,-0.0149 0.03039,-0.0319 0.04687,-0.0469 z m 130.949218,0.15234 c 0.009,-0.005 -0.0398,0.0247 -0.0801,0.0488 0.0249,-0.0124 0.0529,-0.0261 0.082,-0.0391 -4e-4,-0.003 -0.002,-0.007 -0.002,-0.01 z m -7.41406,0.8164 c 0.028,0.063 0.0479,0.0973 0.0352,0.0254 l -0.01,0.0137 z m 0.24805,0.42774 c 0.009,0.0164 0.0115,0.0197 0.0176,0.0293 0.02,0.0113 0.0776,0.0557 0.0605,0.0391 -0.0557,-0.0548 -0.0549,-0.0501 -0.0781,-0.0684 z m 22.32617,0.57617 c -0.008,0.013 -0.008,0.0264 -0.0176,0.0391 0.005,-10e-4 0.0103,-0.003 0.0156,-0.004 0.099,-0.0238 0.0924,-0.0347 0.002,-0.0352 z m -0.69141,0.0449 c -0.002,1.5e-4 -0.006,0.002 -0.008,0.002 0.005,0.006 0.008,0.0136 0.0137,0.0195 0.005,0.006 -0.007,-0.0183 -0.006,-0.0215 z m -140.505858,0.0645 c -0.0012,7.6e-4 -0.0026,7.5e-4 -0.0039,0.002 l -0.002,0.002 c 0.0019,-3.2e-4 0.002,3.4e-4 0.0039,0 z m -0.01172,0.01 c -0.0036,0.004 -0.01284,0.014 -0.01563,0.0176 0.0028,-6.8e-4 0.0078,-0.005 0.0098,-0.006 0.0031,-0.005 0.0049,-0.008 0.0059,-0.0117 z m 0.03711,0.004 c -0.0054,4.4e-4 -0.01257,-2.3e-4 -0.01758,0.006 -0.0036,0.003 -0.0073,0.006 -0.0098,0.01 0.0058,-0.002 0.0145,-0.008 0.02734,-0.0137 z m 0.101563,0.0742 c -0.01015,0.0157 -0.0094,0.0182 -0.01367,0.0273 0.005,-0.003 0.0077,-0.008 0.01172,-0.0117 9.03e-4,-0.004 0.0045,-0.0194 0.002,-0.0156 z m -5.714844,0.53515 c -0.009,0.006 -0.01404,0.006 -0.02148,0.01 h 0.04102 c -0.0069,-0.003 -0.0138,-0.006 -0.01953,-0.01 z m -0.851562,0.002 c -0.0015,0.002 -0.0028,0 -0.0039,0.002 -0.0022,0.002 -0.007,0.004 -0.0098,0.006 h 0.0098 c 10e-4,-0.003 0.0021,-0.005 0.0039,-0.008 z m 126.068361,0.14257 c 0.006,0.009 0.0104,0.0192 0.0176,0.0273 0.0166,0.0189 0.0804,0.058 0.0625,0.041 -0.0602,-0.0575 -0.057,-0.0511 -0.0801,-0.0684 z m 0.12109,0.18164 c 0.0115,0.021 0.0139,0.0262 0.0234,0.0371 0.0132,0.0151 0.0644,0.048 0.0508,0.0352 -0.0541,-0.0581 -0.0506,-0.0513 -0.0742,-0.0723 z m -121.611326,1.0918 -0.002,0.002 c -0.0043,0.007 -0.01146,0.0126 -0.01758,0.0176 0.0063,-0.003 0.0097,-0.008 0.01758,-0.0117 -0.04195,0.0227 0.003,-0.01 0.002,-0.008 z m -0.01953,0.01 c -0.0089,0.004 -0.02233,0.0125 -0.0293,0.0156 -0.05825,0.0265 -0.12119,0.0413 -0.181641,0.0625 -0.01326,0.0103 -0.01363,0.009 -0.02539,0.0176 -0.02035,0.0228 -0.04261,0.0445 -0.06445,0.0664 0.0093,0.009 0.03676,0.0271 0.04492,0.0351 0.0062,-0.002 0.0108,-0.005 0.01758,-0.006 0.0054,-5.4e-4 0.0055,-0.005 0.01367,-0.006 l 0.002,-0.002 0.002,-0.002 c 0.0081,-0.0106 0.01568,-0.0222 0.02734,-0.0293 0.01474,-0.008 0.08884,-0.0229 0.02734,-0.01 0.0012,-6.7e-4 0.0021,-3.7e-4 0.0039,-0.002 0.0054,-0.005 0.0064,-0.0117 0.01172,-0.0137 0.01587,-0.0113 0.03576,-0.0121 0.05273,-0.0234 0.0072,-0.003 -0.01928,0.0134 -0.02344,0.008 -0.0042,-0.008 0.01273,-0.008 0.01953,-0.0117 -0.04411,0.034 -0.02389,0.0254 0,-0.006 0.0033,-0.003 0.0046,-0.008 0.0078,-0.0117 0.0035,-0.003 0.01113,-0.01 0.01172,-0.01 0.0071,-0.006 0.01441,-0.0127 0.02148,-0.0176 -0.02554,0.0194 -0.0048,6.9e-4 0.0098,-0.0117 0.0052,-0.005 -0.0015,0.001 0.0039,-0.004 0.0127,-0.0116 0.02881,-0.0185 0.04297,-0.0254 v -0.002 c 8.51e-4,-0.003 0.0028,-0.008 0.0039,-0.0117 z m -0.220703,0.18164 c 0.0092,-0.004 0.01324,-0.006 0.01953,-0.01 -0.06561,0.0438 -0.0056,-0.004 -0.0039,-0.004 0.0063,-0.003 -0.01349,0.0141 -0.01563,0.0137 z M 59.734375,122 c -0.03498,0.0378 -0.03057,0.0273 -0.02539,0.0234 0.0064,-0.003 0.0098,-0.004 0.01367,-0.008 0.0053,-0.004 0.01625,-0.0232 0.01172,-0.0156 z" />
    <path
       style="fill:none;stroke:#000000;stroke-width:0.31730148px;stroke-linecap:butt;stroke-linejoin:miter;stroke-opacity:1"
       d="m 15.652096,265.49105 1.39865,-1.32012 -1.56278,1.47204 z"
       id="path145"
       inkscape:connector-curvature="0"
       sodipodi:nodetypes="cccc" />
    <path
       style="fill:none;stroke:#000000;stroke-width:0.34950411px;stroke-linecap:butt;stroke-linejoin:miter;stroke-opacity:1"
       d="m 47.453647,264.25483 1.512585,1.57507 -1.619142,-0.0231 z"
       id="path184"
       inkscape:connector-curvature="0" />
    <path
       style="fill:none;stroke:#000000;stroke-width:0.28176892px;stroke-linecap:butt;stroke-linejoin:miter;stroke-opacity:1"
       d="m 44.948478,262.62799 c 0.989271,1.39834 1.000123,1.39834 1.000123,1.39834 l 0.444853,-0.68541 -1.068737,-0.51772 z"
       id="path186"
       inkscape:connector-curvature="0" />
  </g>
</svg>
