<?xml version="1.0" encoding="UTF-8" standalone="no"?>
<!-- Created with Inkscape (http://www.inkscape.org/) -->

<svg
   xmlns:dc="http://purl.org/dc/elements/1.1/"
   xmlns:cc="http://creativecommons.org/ns#"
   xmlns:rdf="http://www.w3.org/1999/02/22-rdf-syntax-ns#"
   xmlns:svg="http://www.w3.org/2000/svg"
   xmlns="http://www.w3.org/2000/svg"
   xmlns:sodipodi="http://sodipodi.sourceforge.net/DTD/sodipodi-0.dtd"
   xmlns:inkscape="http://www.inkscape.org/namespaces/inkscape"
   width="64mm"
   height="64mm"
   viewBox="0 0 64 64"
   version="1.1"
   id="svg342"
   inkscape:version="0.92.4 (5da689c313, 2019-01-14)"
   sodipodi:docname="carFront.svg">
  <defs
     id="defs336" />
  <sodipodi:namedview
     id="base"
     pagecolor="#ffffff"
     bordercolor="#666666"
     borderopacity="1.0"
     inkscape:pageopacity="0.0"
     inkscape:pageshadow="2"
     inkscape:zoom="1.4"
     inkscape:cx="254.7393"
     inkscape:cy="50.741546"
     inkscape:document-units="mm"
     inkscape:current-layer="layer1"
     showgrid="false"
     inkscape:window-width="1920"
     inkscape:window-height="1017"
     inkscape:window-x="-8"
     inkscape:window-y="-8"
     inkscape:window-maximized="1" />
  <metadata
     id="metadata339">
    <rdf:RDF>
      <cc:Work
         rdf:about="">
        <dc:format>image/svg+xml</dc:format>
        <dc:type
           rdf:resource="http://purl.org/dc/dcmitype/StillImage" />
        <dc:title />
      </cc:Work>
    </rdf:RDF>
  </metadata>
  <g
     inkscape:label="Layer 1"
     inkscape:groupmode="layer"
     id="layer1"
     transform="translate(0,-233)">
    <path
       style="stroke-width:0.00595167"
       inkscape:connector-curvature="0"
       d="m 24.964608,259.10119 c -0.831954,0.0417 -1.634181,0.0894 -1.782744,0.10729 -0.719043,0.0835 -1.657956,0.22056 -1.871887,0.26825 -0.130731,0.0298 -0.398138,0.0835 -0.594248,0.11922 -0.879485,0.1669 -2.460184,0.62589 -3.595197,1.0491 -1.82434,0.67955 -3.149518,1.13853 -4.219161,1.46042 -1.337058,0.39938 -1.562877,0.46496 -2.169004,0.59609 -1.0577638,0.23844 -2.6028099,0.6855 -3.4466423,1.00739 -2.7989039,1.07296 -4.5994779,2.63471 -5.3541746,4.63757 -0.1545054,0.40534 -0.3268332,1.16833 -0.3149542,1.40677 0,0.12518 0.00626,0.11922 0.065377,-0.0179 0.3446635,-0.76896 0.4813464,-1.01931 0.8081796,-1.44253 1.1825524,-1.5558 3.2267675,-2.64068 6.2811993,-3.32618 0.5526518,-0.12518 0.719044,-0.16094 1.4261932,-0.32785 1.687665,-0.39342 4.046834,-1.11469 5.615646,-1.71078 1.574763,-0.60204 3.161397,-1.11468 4.189453,-1.35907 1.568811,-0.36958 2.537439,-0.52456 3.624913,-0.57225 0.392203,-0.0238 0.956733,-0.0596 1.247915,-0.0954 0.297131,-0.0298 1.990731,-0.0596 3.773475,-0.0656 2.816742,-0.0119 3.339677,0 4.011181,0.0954 1.010217,0.1371 1.812453,0.29208 2.25814,0.42918 0.130739,0.0417 0.445685,0.13113 0.701213,0.20863 0.558595,0.16095 1.562869,0.55436 2.311622,0.91201 0.303067,0.14903 0.754697,0.35169 0.998337,0.45899 0.243642,0.10134 0.499169,0.21459 0.564539,0.2444 0.249585,0.10729 1.366767,0.53052 1.414307,0.53052 0.02972,0 0.136675,0.0358 0.237706,0.0835 0.1961,0.0894 1.414307,0.48283 2.002611,0.64974 0.178272,0.0537 0.552651,0.16094 0.831945,0.23843 0.552652,0.16095 0.992394,0.2742 1.812461,0.45899 0.297124,0.0656 0.69527,0.16095 0.891372,0.20863 0.582361,0.1371 3.21488,0.6557 4.545995,0.88817 6.144524,1.09084 8.676021,1.8598 10.892563,3.32021 0.285246,0.18479 0.516999,0.32786 0.516999,0.30401 0,-0.0417 -0.303066,-0.56033 -0.380316,-0.64974 -0.998337,-1.09084 -2.121463,-1.84191 -3.577374,-2.37839 -1.313284,-0.48283 -1.283575,-0.47091 -2.371048,-0.76896 -0.196102,-0.0596 -0.421921,-0.12517 -0.505113,-0.14902 -0.0832,-0.0298 -0.24364,-0.0715 -0.35655,-0.0894 -0.112901,-0.0238 -0.285237,-0.0656 -0.386259,-0.0954 -0.09508,-0.0298 -0.433799,-0.1073 -0.74281,-0.17883 -0.309011,-0.0656 -0.831946,-0.18479 -1.158787,-0.26228 -0.326833,-0.0715 -0.808179,-0.17882 -1.069643,-0.23843 -0.261471,-0.0537 -0.552652,-0.12518 -0.653674,-0.14902 -0.09508,-0.0298 -0.273351,-0.0656 -0.38626,-0.0835 -0.112909,-0.0179 -0.475395,-0.0954 -0.802236,-0.17882 -0.326841,-0.0775 -0.80818,-0.19075 -1.069651,-0.2444 -0.261463,-0.0537 -0.623958,-0.14306 -0.802236,-0.19075 -0.178271,-0.0537 -0.647723,-0.17287 -1.039926,-0.26824 -0.689335,-0.1669 -1.170673,-0.29208 -1.545046,-0.40534 -0.09508,-0.0238 -0.380324,-0.1073 -0.623965,-0.17286 -0.843832,-0.23844 -1.277632,-0.36958 -1.396485,-0.42323 -0.166384,-0.0656 -0.433798,-0.15498 -0.724979,-0.23247 -0.142619,-0.0417 -0.255528,-0.0954 -0.255528,-0.13114 0,-0.0358 -0.02972,-0.0417 -0.05944,-0.0238 -0.08319,0.0477 -0.309003,-0.0238 -0.267407,-0.0894 0.01783,-0.0238 -0.02378,-0.0358 -0.08913,-0.0179 -0.07132,0.0179 -0.118853,0 -0.118853,-0.0358 0,-0.0417 -0.02378,-0.0596 -0.04754,-0.0417 -0.0535,0.0298 -0.831946,-0.23248 -1.479677,-0.49475 -0.172335,-0.0656 -0.457573,-0.17883 -0.623958,-0.25036 -0.451629,-0.17883 -1.705494,-0.73915 -2.394821,-1.067 -1.663899,-0.7928 -3.321846,-1.23986 -5.372005,-1.46042 -1.0637,-0.11325 -5.128364,-0.11325 -7.374616,0.006 z"
       id="path38" />
  </g>
</svg>
