<?xml version="1.0" encoding="UTF-8" standalone="no"?>
<svg
   xmlns:dc="http://purl.org/dc/elements/1.1/"
   xmlns:cc="http://creativecommons.org/ns#"
   xmlns:rdf="http://www.w3.org/1999/02/22-rdf-syntax-ns#"
   xmlns:svg="http://www.w3.org/2000/svg"
   xmlns="http://www.w3.org/2000/svg"
   xmlns:sodipodi="http://sodipodi.sourceforge.net/DTD/sodipodi-0.dtd"
   xmlns:inkscape="http://www.inkscape.org/namespaces/inkscape"
   width="48"
   height="48"
   viewBox="0 0 48 48"
   version="1.1"
   id="svg6"
   sodipodi:docname="delete.svg"
   inkscape:version="0.92.1 r15371">
  <metadata
     id="metadata12">
    <rdf:RDF>
      <cc:Work
         rdf:about="">
        <dc:format>image/svg+xml</dc:format>
        <dc:type
           rdf:resource="http://purl.org/dc/dcmitype/StillImage" />
        <dc:title></dc:title>
      </cc:Work>
    </rdf:RDF>
  </metadata>
  <defs
     id="defs10" />
  <sodipodi:namedview
     pagecolor="#ffffff"
     bordercolor="#666666"
     borderopacity="1"
     objecttolerance="10"
     gridtolerance="10"
     guidetolerance="10"
     inkscape:pageopacity="0"
     inkscape:pageshadow="2"
     inkscape:window-width="1920"
     inkscape:window-height="1007"
     id="namedview8"
     showgrid="false"
     inkscape:zoom="9.8333333"
     inkscape:cx="12"
     inkscape:cy="12"
     inkscape:window-x="0"
     inkscape:window-y="0"
     inkscape:window-maximized="1"
     inkscape:current-layer="svg6" />
  <path
     d="M 0,24 H 24 V 48 H 0 Z"
     id="path2"
     inkscape:connector-curvature="0"
     style="fill:none" />
  <path
     d="m 9.519774,40.841808 c 0,2.734463 2.237288,4.971751 4.971751,4.971751 h 19.887006 c 2.734463,0 4.971751,-2.237288 4.971751,-4.971751 V 15.983051 c 0,-2.734464 -2.237288,-4.971752 -4.971751,-4.971752 H 14.491525 c -2.734463,0 -4.971751,2.237288 -4.971751,4.971752 z M 39.350282,3.5536723 H 33.135593 L 31.370621,1.7887006 C 30.923164,1.3412429 30.276836,1.0677966 29.630508,1.0677966 h -10.39096 c -0.646328,0 -1.292656,0.2734463 -1.740113,0.720904 L 15.734463,3.5536723 H 9.519774 c -1.3672316,0 -2.4858757,1.1186441 -2.4858757,2.4858757 0,1.3672316 1.1186441,2.4858757 2.4858757,2.4858757 h 29.830508 c 1.367232,0 2.485876,-1.1186441 2.485876,-2.4858757 0,-1.3672316 -1.118644,-2.4858757 -2.485876,-2.4858757 z"
     id="path4"
     inkscape:connector-curvature="0"
     style="stroke-width:2.48587561;fill:#ffffff" />
</svg>
