<?xml version="1.0" encoding="UTF-8" standalone="no"?>
<svg
   xmlns:dc="http://purl.org/dc/elements/1.1/"
   xmlns:cc="http://creativecommons.org/ns#"
   xmlns:rdf="http://www.w3.org/1999/02/22-rdf-syntax-ns#"
   xmlns:svg="http://www.w3.org/2000/svg"
   xmlns="http://www.w3.org/2000/svg"
   xmlns:sodipodi="http://sodipodi.sourceforge.net/DTD/sodipodi-0.dtd"
   xmlns:inkscape="http://www.inkscape.org/namespaces/inkscape"
   width="48"
   height="48"
   viewBox="0 0 48 48"
   version="1.1"
   id="svg3733"
   sodipodi:docname="link_off-24px.svg"
   inkscape:version="0.92.4 (5da689c313, 2019-01-14)">
  <metadata
     id="metadata3739">
    <rdf:RDF>
      <cc:Work
         rdf:about="">
        <dc:format>image/svg+xml</dc:format>
        <dc:type
           rdf:resource="http://purl.org/dc/dcmitype/StillImage" />
        <dc:title></dc:title>
      </cc:Work>
    </rdf:RDF>
  </metadata>
  <defs
     id="defs3737" />
  <sodipodi:namedview
     pagecolor="#ffffff"
     bordercolor="#666666"
     borderopacity="1"
     objecttolerance="10"
     gridtolerance="10"
     guidetolerance="10"
     inkscape:pageopacity="0"
     inkscape:pageshadow="2"
     inkscape:window-width="1920"
     inkscape:window-height="1017"
     id="namedview3735"
     showgrid="false"
     inkscape:zoom="8.8333333"
     inkscape:cx="40.523866"
     inkscape:cy="16.602034"
     inkscape:window-x="-8"
     inkscape:window-y="-8"
     inkscape:window-maximized="1"
     inkscape:current-layer="svg3733" />
  <path
     d="M 0,24 H 24 V 48 H 0 Z"
     id="path3727"
     inkscape:connector-curvature="0"
     style="fill:none" />
  <path
     d="m 34,14.226415 h -7.927045 v 3.765347 H 34 c 3.388811,0 6.143458,2.754647 6.143458,6.143459 0,2.833918 -1.942125,5.212031 -4.577867,5.905648 l 2.893371,2.893371 c 3.23027,-1.644862 5.449842,-4.934586 5.449842,-8.799019 0,-5.46966 -4.439144,-9.908806 -9.908804,-9.908806 z m -1.981762,7.927044 h -4.340056 l 3.963522,3.963523 h 0.376534 z M 4.273584,8.8162083 10.436861,14.979485 c -3.606806,1.466502 -6.163277,5.013854 -6.163277,9.155735 0,5.46966 4.439144,9.908805 9.908806,9.908805 h 7.927043 V 30.278679 H 14.18239 c -3.388813,0 -6.14346,-2.754648 -6.14346,-6.143459 0,-3.151 2.397931,-5.747107 5.46966,-6.084007 l 4.102245,4.102246 H 16.16415 v 3.963522 h 5.410207 l 4.498598,4.498597 v 3.428447 h 3.428447 L 37.448263,41.971069 39.945282,39.47405 6.790419,6.2993716 Z"
     id="path3729"
     inkscape:connector-curvature="0"
     style="stroke-width:1.9817611" />
  <path
     d="M 0,48 V 24"
     id="path3731"
     inkscape:connector-curvature="0"
     style="fill:none" />
</svg>
