<?xml version="1.0" encoding="UTF-8" standalone="no"?>
<!-- Generator: Adobe Illustrator 16.0.0, SVG Export Plug-In . SVG Version: 6.00 Build 0)  -->

<svg
   xmlns:dc="http://purl.org/dc/elements/1.1/"
   xmlns:cc="http://creativecommons.org/ns#"
   xmlns:rdf="http://www.w3.org/1999/02/22-rdf-syntax-ns#"
   xmlns:svg="http://www.w3.org/2000/svg"
   xmlns="http://www.w3.org/2000/svg"
   xmlns:sodipodi="http://sodipodi.sourceforge.net/DTD/sodipodi-0.dtd"
   xmlns:inkscape="http://www.inkscape.org/namespaces/inkscape"
   version="1.1"
   id="Capa_1"
   x="0px"
   y="0px"
   width="100.03"
   height="100.03"
   viewBox="0 0 100.03 100.03"
   xml:space="preserve"
   sodipodi:docname="radar.svg"
   inkscape:version="0.92.1 r15371"><metadata
     id="metadata49"><rdf:RDF><cc:Work
         rdf:about=""><dc:format>image/svg+xml</dc:format><dc:type
           rdf:resource="http://purl.org/dc/dcmitype/StillImage" /><dc:title></dc:title></cc:Work></rdf:RDF></metadata><defs
     id="defs47" /><sodipodi:namedview
     pagecolor="#ffffff"
     bordercolor="#666666"
     borderopacity="1"
     objecttolerance="10"
     gridtolerance="10"
     guidetolerance="10"
     inkscape:pageopacity="0"
     inkscape:pageshadow="2"
     inkscape:window-width="1920"
     inkscape:window-height="1007"
     id="namedview45"
     showgrid="false"
     inkscape:zoom="3.6774305"
     inkscape:cx="64.169348"
     inkscape:cy="31.465089"
     inkscape:window-x="0"
     inkscape:window-y="0"
     inkscape:window-maximized="1"
     inkscape:current-layer="Capa_1" /><g
     id="g12"
     transform="matrix(0.27265874,0,0,0.27265874,0.64253701,0.5028394)"
     style="fill:#ffffff"><g
       id="g10"
       style="fill:#ffffff"><path
         style="fill:#ffffff"
         d="M 181.51,0 C 129.656,0 82.842,21.894 49.738,56.883 48.18,56.486 46.576,56.205 44.889,56.205 c -10.778,0 -19.516,8.74 -19.516,19.521 0,3.408 0.949,6.556 2.485,9.343 -17.614,27.967 -27.855,61.025 -27.855,96.449 0,100.082 81.43,181.512 181.512,181.512 100.089,0 181.513,-81.43 181.513,-181.512 C 363.022,81.43 281.604,0 181.51,0 Z m 0,351.32 c -93.624,0 -169.803,-76.176 -169.803,-169.802 0,-32.299 9.063,-62.51 24.779,-88.238 2.553,1.224 5.375,1.967 8.397,1.967 10.778,0 19.516,-8.737 19.516,-19.521 0,-4.755 -1.767,-9.061 -4.603,-12.448 C 90.67,31.506 133.807,11.71 181.498,11.71 275.13,11.71 351.3,87.88 351.3,181.513 351.312,275.145 275.142,351.32 181.51,351.32 Z"
         id="path2"
         inkscape:connector-curvature="0" /><path
         style="fill:#ffffff"
         d="m 181.51,58.552 c -67.799,0 -122.96,55.156 -122.96,122.96 0,56.699 38.622,104.416 90.902,118.574 0.764,10.092 9.095,18.052 19.37,18.052 8.829,0 16.219,-5.907 18.617,-13.97 65.037,-3.121 117.025,-56.865 117.025,-122.656 C 304.47,113.714 249.313,58.552 181.51,58.552 Z m 5.749,233.924 c -2.588,-7.747 -9.818,-13.374 -18.438,-13.374 -7.136,0 -13.314,3.877 -16.717,9.601 -47.094,-12.951 -81.845,-56.036 -81.845,-107.184 0,-61.346 49.904,-111.25 111.25,-111.25 61.349,0 111.249,49.904 111.249,111.25 0.001,59.404 -46.829,107.938 -105.499,110.957 z"
         id="path4"
         inkscape:connector-curvature="0" /><path
         style="fill:#ffffff"
         d="m 226.79,132.38 c 0.354,-1.464 0.589,-2.968 0.589,-4.543 0,-10.779 -8.731,-19.516 -19.521,-19.516 -6.119,0 -11.522,2.882 -15.096,7.296 -3.671,-0.621 -7.411,-1.018 -11.253,-1.018 -36.898,0 -66.918,30.02 -66.918,66.923 0,36.904 30.02,66.924 66.918,66.924 36.909,0 66.929,-30.02 66.929,-66.924 0,-19.437 -8.376,-36.902 -21.648,-49.142 z m -45.28,104.357 c -30.44,0 -55.208,-24.771 -55.208,-55.219 0,-30.449 24.768,-55.217 55.208,-55.217 2.353,0 4.665,0.2 6.947,0.486 -0.023,0.357 -0.114,0.692 -0.114,1.055 0,10.779 8.742,19.516 19.516,19.516 4.883,0 9.297,-1.855 12.717,-4.82 9.972,9.995 16.153,23.787 16.153,38.98 0,30.443 -24.777,55.219 -55.219,55.219 z"
         id="path6"
         inkscape:connector-curvature="0" /><circle
         style="fill:#ffffff"
         cx="181.50999"
         cy="181.513"
         r="19.516001"
         id="circle8" /></g></g><g
     id="g14"
     transform="translate(0,-263)" /><g
     id="g16"
     transform="translate(0,-263)" /><g
     id="g18"
     transform="translate(0,-263)" /><g
     id="g20"
     transform="translate(0,-263)" /><g
     id="g22"
     transform="translate(0,-263)" /><g
     id="g24"
     transform="translate(0,-263)" /><g
     id="g26"
     transform="translate(0,-263)" /><g
     id="g28"
     transform="translate(0,-263)" /><g
     id="g30"
     transform="translate(0,-263)" /><g
     id="g32"
     transform="translate(0,-263)" /><g
     id="g34"
     transform="translate(0,-263)" /><g
     id="g36"
     transform="translate(0,-263)" /><g
     id="g38"
     transform="translate(0,-263)" /><g
     id="g40"
     transform="translate(0,-263)" /><g
     id="g42"
     transform="translate(0,-263)" /></svg>