<?xml version="1.0" encoding="UTF-8" standalone="no"?>
<svg
   xmlns:dc="http://purl.org/dc/elements/1.1/"
   xmlns:cc="http://creativecommons.org/ns#"
   xmlns:rdf="http://www.w3.org/1999/02/22-rdf-syntax-ns#"
   xmlns:svg="http://www.w3.org/2000/svg"
   xmlns="http://www.w3.org/2000/svg"
   xmlns:sodipodi="http://sodipodi.sourceforge.net/DTD/sodipodi-0.dtd"
   xmlns:inkscape="http://www.inkscape.org/namespaces/inkscape"
   width="48"
   height="48"
   viewBox="0 0 48 48"
   version="1.1"
   id="svg6"
   sodipodi:docname="remove48.svg"
   inkscape:version="0.92.1 r15371">
  <metadata
     id="metadata12">
    <rdf:RDF>
      <cc:Work
         rdf:about="">
        <dc:format>image/svg+xml</dc:format>
        <dc:type
           rdf:resource="http://purl.org/dc/dcmitype/StillImage" />
        <dc:title></dc:title>
      </cc:Work>
    </rdf:RDF>
  </metadata>
  <defs
     id="defs10" />
  <sodipodi:namedview
     pagecolor="#ffffff"
     bordercolor="#666666"
     borderopacity="1"
     objecttolerance="10"
     gridtolerance="10"
     guidetolerance="10"
     inkscape:pageopacity="0"
     inkscape:pageshadow="2"
     inkscape:window-width="1920"
     inkscape:window-height="1007"
     id="namedview8"
     showgrid="false"
     inkscape:zoom="9.8333333"
     inkscape:cx="12"
     inkscape:cy="12"
     inkscape:window-x="0"
     inkscape:window-y="0"
     inkscape:window-maximized="1"
     inkscape:current-layer="svg6" />
  <path
     d="m 42.36421,5.6644552 c -1.117946,-1.1179459 -2.923858,-1.1179459 -4.041804,0 L 24.305085,19.653111 10.287764,5.6357899 c -1.1179462,-1.1179459 -2.9238588,-1.1179459 -4.0418046,0 -1.1179459,1.1179459 -1.1179459,2.9238584 0,4.0418042 L 20.26328,23.694915 6.2459594,37.712236 c -1.1179459,1.117946 -1.1179459,2.923859 0,4.041805 1.1179458,1.117945 2.9238584,1.117945 4.0418046,0 L 24.305085,27.73672 38.322406,41.754041 c 1.117946,1.117945 2.923858,1.117945 4.041804,0 1.117946,-1.117946 1.117946,-2.923859 0,-4.041805 L 28.346889,23.694915 42.36421,9.6775941 c 1.089281,-1.0892805 1.089281,-2.9238583 0,-4.0131389 z"
     id="path4"
     style="fill:#ffffff;stroke-width:2.8665278"
     inkscape:connector-curvature="0" />
</svg>
