<?xml version="1.0" encoding="UTF-8" standalone="no"?>
<svg
   xmlns:dc="http://purl.org/dc/elements/1.1/"
   xmlns:cc="http://creativecommons.org/ns#"
   xmlns:rdf="http://www.w3.org/1999/02/22-rdf-syntax-ns#"
   xmlns:svg="http://www.w3.org/2000/svg"
   xmlns="http://www.w3.org/2000/svg"
   xmlns:sodipodi="http://sodipodi.sourceforge.net/DTD/sodipodi-0.dtd"
   xmlns:inkscape="http://www.inkscape.org/namespaces/inkscape"
   width="48"
   height="48"
   viewBox="0 0 48 48"
   version="1.1"
   id="svg87"
   sodipodi:docname="slider.svg"
   inkscape:version="0.92.4 (5da689c313, 2019-01-14)">
  <metadata
     id="metadata93">
    <rdf:RDF>
      <cc:Work
         rdf:about="">
        <dc:format>image/svg+xml</dc:format>
        <dc:type
           rdf:resource="http://purl.org/dc/dcmitype/StillImage" />
      </cc:Work>
    </rdf:RDF>
  </metadata>
  <defs
     id="defs91" />
  <sodipodi:namedview
     pagecolor="#ffffff"
     bordercolor="#666666"
     borderopacity="1"
     objecttolerance="10"
     gridtolerance="10"
     guidetolerance="10"
     inkscape:pageopacity="0"
     inkscape:pageshadow="2"
     inkscape:window-width="1920"
     inkscape:window-height="1017"
     id="namedview89"
     showgrid="false"
     inkscape:zoom="12.49222"
     inkscape:cx="26.510869"
     inkscape:cy="33.45704"
     inkscape:window-x="-8"
     inkscape:window-y="-8"
     inkscape:window-maximized="1"
     inkscape:current-layer="svg87" />
  <path
     id="path85"
     d="m 9,19 c -2.77,0 -5,2.23 -5,5 0,2.77 2.23,5 5,5 2.05,0 3.810078,-1.23 4.580078,-3 l 15.622642,-0.141509 5.471919,-0.0283 c 7.676949,0.09848 7.524577,-0.314555 7.423017,0.267471 -9.87e-4,-0.0072 0.10266,-0.574856 0.10156,-0.582026 0.0063,-0.05052 -0.09886,0.456225 -0.08203,0.408202 0.01052,-0.0299 0.02955,-0.05523 0.04687,-0.08203 -0.01154,-0.117471 -0.0069,-0.213466 0.03516,-0.326172 0.0069,-0.01842 0.01179,-0.05477 0.02734,-0.05273 -8e-6,-0.110138 -1.21e-4,-0.221895 0,-0.332032 1.95e-4,-0.113527 -8.99e-4,-0.22632 -0.002,-0.339843 2.49e-4,-0.103613 0.0076,-0.207051 0.002,-0.310547 -0.0095,-0.09828 -0.0262,-0.203847 0.0039,-0.300781 0.01367,-0.04408 0.03988,-0.0846 0.0625,-0.125 0.004,-0.05895 -0.0038,-0.11925 0.01953,-0.181641 0.0069,-0.01841 0.01181,-0.05479 0.02734,-0.05273 -8e-6,-0.109871 -9e-6,-0.220205 0,-0.330078 -1.09e-4,-0.113867 -0.001,-0.227933 0,-0.341796 7.36e-4,-0.118701 -0.003,-0.236793 -0.002,-0.355469 0.0079,-0.119332 0.03694,-0.127238 -0.0098,-0.228516 -0.01216,-0.06064 -0.02784,-0.120491 -0.03711,-0.181641 -0.0014,-0.0095 -0.0057,-0.02911 0.0039,-0.0293 -0.01732,-0.03637 -0.02484,-0.07585 -0.0625,-0.197266 0.0015,-0.01367 -3.41e-4,-0.02876 0.0059,-0.04102 0.0066,-0.01302 -0.04188,-0.108339 -0.02539,-0.06641 C 41.182925,22.048346 42.212023,22.049023 34.419922,22 H 28.580078 23.943359 19.419922 13.580078 C 12.810078,20.230431 11.05,19 9,19 Z m 33.294922,3.353516 c 0.01036,-2.02e-4 0.0081,0.01862 0.01367,0.02734 0.01003,0.01565 0.04511,0.05919 0.0332,0.04492 -0.03014,-0.03614 -0.03721,-0.05198 -0.04687,-0.07227 z"
     inkscape:connector-curvature="0"
     sodipodi:nodetypes="sssccccccccccccccccccccccccccccccsccccc" />
  <rect
     id="rect153"
     width="29.94273"
     height="4.0067463"
     x="13.580078"
     y="22"
     style="stroke-width:0.96920937" />
</svg>
